<svg xmlns="http://www.w3.org/2000/svg" viewBox="0 0 64 64" role="img" aria-label="Snapcast">
  <defs>
    <linearGradient id="g" x1="0%" y1="0%" x2="100%" y2="0%">
      <stop offset="0%" stop-color="#00c6ff"/>
      <stop offset="100%" stop-color="#0072ff"/>
    </linearGradient>
  </defs>
  <rect x="6" y="6" width="52" height="52" rx="10" fill="url(#g)"/>
  <path fill="#fff" d="M21 26c0-5 4-9 9-9s9 4 9 9v1.2c2.9 1.2 5 4 5 7.4 0 4.4-3.6 8-8 8h-8c-4.4 0-8-3.6-8-8 0-3.4 2.1-6.2 5-7.4V26zm6 0v2.3l-2 .8c-1.6.7-2.7 2.3-2.7 4.1 0 2.5 2 4.5 4.5 4.5h8c2.5 0 4.5-2 4.5-4.5 0-1.8-1.1-3.4-2.7-4.1l-2-.8V26c0-3.3-2.7-6-6-6s-6 2.7-6 6z"/>
  <circle cx="32" cy="35" r="3" fill="#fff"/>
</svg>
